<svg xmlns="http://www.w3.org/2000/svg" width="41" height="34" fill="none" viewBox="0 0 41 34"><path fill="#fff" d="M2 32L2 17C2 16.4477 2.44772 16 3 16H8C8.55228 16 9 16.4477 9 17V32H2Z"/><path fill="#fff" d="M22 32V14C22 13.4477 22.4477 13 23 13H28C28.5523 13 29 13.4477 29 14V32H22Z"/><path fill="#fff" d="M12 32L12 7C12 6.44772 12.4477 6 13 6H18C18.5523 6 19 6.44772 19 7V32H12Z"/><path fill="#fff" d="M32 32V1C32 0.447716 32.4477 0 33 0H38C38.5523 0 39 0.447716 39 1V32H32Z"/><rect width="41" height="3" y="31" fill="#fff" rx="1"/></svg>